<?xml version="1.0" encoding="utf-8"?>
<!-- Generator: Adobe Illustrator 23.0.3, SVG Export Plug-In . SVG Version: 6.00 Build 0)  -->
<svg version="1.1" id="Ebene_1" xmlns="http://www.w3.org/2000/svg" xmlns:xlink="http://www.w3.org/1999/xlink" x="0px" y="0px"
	 viewBox="0 0 1017 215" style="enable-background:new 0 0 1017 215;" xml:space="preserve">
<style type="text/css">
	.st0{fill:#FFFFFF;}
	.st1{fill:#6200DE;}
</style>
<path class="st0" d="M2.2,140.8c1.8-3.9,3.9-8.9,6.3-15s5-12.7,7.7-19.7c2.7-7.2,5.5-14.4,8.3-21.8c2.8-7.5,5.5-14.6,7.9-21.3
	s4.6-12.7,6.3-18c1.9-5.3,3.2-9.3,4-12.1c-7.4,3.1-13.7,7.7-19,13.9s-9.3,14-12,23.4c-2.7-0.9-5.2-2.6-7.4-4.9
	c-2.2-2.5-3.7-5.5-4.4-9.2c1.2-5.4,3.3-10.3,6.5-14.8C9.9,36.9,14,33.1,18.9,30s10.6-5.6,17.1-7.2c6.5-1.8,13.4-2.6,20.8-2.6
	c9.4,0,18,1.4,25.9,4.2c7.9,2.7,14.6,6.5,20.2,11.4c5.6,4.9,10,10.9,13.2,17.8s4.8,14.6,4.8,23.1c0,11.5-2.1,22.5-6.3,32.9
	c-4.2,10.4-10,19.7-17.2,27.6c-7.2,8-15.5,14.3-25,19c-9.5,4.8-19.5,7.2-29.9,7.2c-9.6,0-17.9-1.9-24.8-5.8
	C10.7,153.8,5.6,148.2,2.2,140.8z M64.3,28.9c-5.9,0-11.4,0.8-16.7,2.5c5.2,1.9,9.4,3.9,12.8,6c3.4,2,5.7,3.6,7,4.8
	c-0.9,1.3-2.3,3.6-4.2,6.9c-1.8,3.3-3.9,7.3-6.3,12c-2.3,4.7-4.9,9.9-7.6,15.5c-2.7,5.5-5.3,11.2-7.9,17.1
	c-6.7,14.9-11.6,26.6-14.6,35.2c-2.9,8.6-4.4,14.5-4.4,17.8c1.6,0.6,3.6,1,6,1.2s4.9,0.4,7.6,0.4c9.5,0,18.5-2.2,26.9-6.5
	c8.6-4.5,16-10.4,22.4-17.8c6.5-7.4,11.5-16,15.1-25.7c3.8-9.9,5.6-20.2,5.6-31c0-12.1-3.8-21.5-11.3-28.2
	C87.3,32.3,77.1,28.9,64.3,28.9z M146.6,156.2c-6.7-0.7-12-3.6-16-8.8c-4-5.2-6-11.7-6-19.7c0-4.7,0.7-9.6,2.1-14.6s3.4-9.9,6-14.6
	c2.6-4.8,5.6-9.3,9.2-13.6c3.5-4.2,7.3-7.9,11.4-10.9c6.5-4.8,12.5-7.2,18.1-7.2c3.8,2,7.4,6.2,11.1,12.5c0.6,0,1.1,0,1.6,0
	c0.5-0.1,1-0.2,1.6-0.2c6.2,0,9.3,5.5,9.3,16.5c0,7.4-1.2,14.4-3.7,21.1c-2.3,6.6-5.7,12.6-10,18c-4.2,5.4-9.3,10-15.3,13.7
	C160.1,152.1,153.6,154.6,146.6,156.2z M155.6,100.7c-2,2.7-3.9,5.6-5.6,8.8c-1.8,3.2-3.3,6.4-4.6,9.7c-1.3,3.2-2.3,6.3-3,9.3
	c-0.7,2.9-1.1,5.6-1.1,7.9c0,2.8,0.5,5.5,1.4,8.1c0.9,2.6,2,4,3.2,4.4c5.3-1.2,10.1-3.3,14.4-6.5c4.5-3.3,8.3-7.3,11.4-12.1
	c3.3-4.8,5.8-10.3,7.6-16.4c1.9-6.1,2.8-12.6,2.8-19.5c0-3.1-0.2-5.5-0.5-7.2c-0.4-1.8-0.9-3.3-1.8-4.6c-5.2,1.5-9.8,4-13.9,7.4
	C162,93.4,158.5,97,155.6,100.7z M199.3,146.5c0.6-3.4,1.6-7.9,3-13.4c1.5-5.6,3.3-11.6,5.3-17.8c2-6.3,4.1-12.7,6.3-19
	s4.4-12,6.5-17.1c1.5-3.6,2.9-6.5,4-8.4c1.2-2.1,2.5-3.9,3.9-5.3c1.6,0.2,3.3,0.6,5.1,1.2s3.5,1.3,5.1,2.1c1.6,0.8,3.1,1.7,4.4,2.6
	c1.3,0.8,2.3,1.6,3,2.5c-3.2,3.8-6,8-8.4,12.8c-2.3,4.8-4.8,11-7.2,18.5c6.3-5.6,11.9-11,16.7-16.2c4.9-5.2,9.5-10.9,13.7-17.2
	c0.7-0.6,1.9-0.9,3.7-0.9c1.6,0,3.2,0.3,4.8,0.9c1.5,0.5,2.6,1.2,3.2,2.1c-2.1,5.6-3.2,11.2-3.2,16.7c0,5.2,0.8,9,2.3,11.6
	c-0.1,0.7-0.9,2.1-2.5,4c-1.4,2-3,3.9-4.8,5.6c-3.2-1.6-6-3.9-8.4-6.7c-2.5-2.9-4.3-6.1-5.5-9.5c-5.5,3.9-10.2,7.7-14.1,11.4
	c-3.9,3.6-7.2,7.7-10,12.3c-2.7,4.5-5,9.6-7,15.5c-1.9,5.9-3.7,12.8-5.5,20.9c-1.1-0.1-2.3-0.5-3.9-1.2c-1.4-0.6-2.9-1.3-4.4-2.3
	c-1.4-0.9-2.7-1.9-3.9-3C200.4,148.4,199.6,147.4,199.3,146.5z M303,64.6c3.1,0.9,5.9,3.1,8.6,6.3c2.7,3.2,4.7,6.7,6,10.6
	c-1.3,3.2-3.3,7-6,11.4c-2.7,4.5-5.4,9-8.1,13.7c-2.7,4.6-5.2,9-7.4,13.2c-2.1,4.1-3.3,7.5-3.7,10.2c1.9-2,3.9-4.3,6.2-6.9
	c2.3-2.7,4.6-5.3,6.7-7.9c2.2-2.7,4.3-5.1,6.2-7.2c1.9-2.2,3.3-3.9,4.4-4.9c2.2-2.3,4.9-5,7.9-8.1c3.1-3.2,6.2-6.1,9.5-8.8
	c3.4-2.8,6.8-5.2,10.2-7c3.4-2,6.5-3,9.3-3c3.1,0,5.6,1.1,7.6,3.2c2.1,2,3.8,4.1,4.9,6.3c0,0.2-0.5,0.6-1.4,1.1
	c-0.8,0.4-2.1,1.5-3.7,3.3c-1.6,2.1-3.5,5-5.6,8.8c-2,3.6-4,7.6-6,12c-1.9,4.2-3.5,8.6-4.8,13c-1.3,4.5-1.9,8.5-1.9,12.1
	c0,2.9,0.4,4.8,1.1,5.6c0.8,0.8,1.9,1.2,3.3,1.2c1.3,0,2.6-0.3,4-0.9s2.5-0.9,3.3-0.9c0.5,0.2,0.8,0.8,1.1,1.6
	c0.4,0.7,0.5,1.3,0.5,1.9c-0.9,0.8-2.1,1.6-3.3,2.5c-1.3,0.8-2.6,1.6-4,2.3c-1.4,0.7-2.8,1.3-4.2,1.8c-1.3,0.5-2.5,0.7-3.5,0.7
	c-3.4,0-6.2-0.5-8.4-1.6c-2.1-0.9-3.8-2.2-5.1-3.9c-1.2-1.6-2-3.6-2.5-5.8c-0.5-2.3-0.7-4.8-0.7-7.4c0-1.4,0.1-3,0.4-4.8
	c0.2-1.8,0.7-3.8,1.4-6.2c0.7-2.5,1.7-5.3,3-8.6c1.3-3.4,2.9-7.5,4.9-12.1c-0.2,0-1.8,0.8-4.8,2.5c-2.9,1.6-6.1,4.2-9.5,7.6
	c-5.5,5.3-10.5,10.5-15,15.7c-4.3,5.2-8.8,10.9-13.4,17.2c-2.6,3.6-4.9,6.7-6.9,9.2c-1.9,2.6-3.5,4.3-4.9,5.1
	c-2.5-1.4-4.3-3.4-5.5-6c-1.2-2.5-2.1-5-2.6-7.7c0-2.2,0.3-5,0.9-8.4c0.7-3.4,1.6-7.2,2.6-11.3c1.2-4.2,2.6-8.6,4.2-13.2
	c1.6-4.6,3.5-9.2,5.5-13.7c4.5-10.3,8.5-18.4,12.1-24.3C299.7,68.3,302.1,65.1,303,64.6z M373.8,140c0-4.2,0.6-9.7,1.9-16.4
	c1.4-6.8,3.2-14.1,5.3-21.8c2.2-7.9,4.8-15.8,7.6-23.9c2.8-8.2,5.7-15.9,8.6-23.1c2.9-7.2,5.8-13.4,8.6-18.8
	c2.8-5.4,5.3-9.3,7.6-11.6c1.2,0.1,2.7,0.6,4.6,1.4c2,0.7,4,1.6,6,2.6c2,1.1,3.8,2.2,5.5,3.5c1.6,1.2,2.7,2.3,3.2,3.3
	c-3.4,3.1-6.8,7.7-10.2,13.9c-3.3,6.1-6.5,13.1-9.7,20.9c-3.1,7.9-5.9,16.2-8.6,25c-2.7,8.7-5,17.1-7,25.3c-2,8.2-3.6,15.8-4.8,22.9
	c-1.1,7-1.6,12.7-1.6,17.1c0,2,0.2,3.2,0.5,3.7c-2.6-0.1-4.5-0.6-5.6-1.4c-1.2-0.7-2.1-1.5-2.8-2.5c-0.6-0.8-1.2-1.7-1.8-2.6
	c-0.5-0.8-1.2-1.5-2.3-1.9c-0.8-0.4-1.5-1.2-2.1-2.5c-0.6-1.3-1.1-2.7-1.6-4.2c-0.4-1.6-0.6-3.3-0.9-4.9
	C373.9,142.4,373.8,141,373.8,140z M522,96c-1.9,0.1-4.2,1.3-6.9,3.7c-2.7,2.2-5.6,5.2-8.8,8.8c-3.1,3.5-6.3,7.5-9.7,11.8
	c-3.3,4.3-6.5,8.7-9.7,13c-3,4.2-5.9,8.2-8.6,12c-2.7,3.8-5,6.7-6.9,9c-2.6-1.1-4.8-2.6-6.7-4.6c-1.9-2.1-3.2-4.7-4-7.7
	c0.6-3.6,1.4-7.4,2.5-11.3c1.1-4,2.4-8.1,4-12.3c1.8-4.2,3.9-8.6,6.3-13.2c2.6-4.7,5.7-9.6,9.3-14.8c-1.8,0.1-4.2,1.4-7.2,3.9
	c-3.1,2.3-6.3,5.5-9.9,9.3c-3.5,3.8-7.2,8-10.9,12.8c-3.8,4.7-7.3,9.3-10.6,13.9c-4.3,6.1-8,11.4-10.9,16c-2.8,4.6-4.9,7.3-6.2,8.1
	c-3-2.2-5.2-4.6-6.3-7.2c-1.2-2.6-2.1-5.5-2.6-8.6c0.1-2.8,0.5-6.3,1.2-10.6c0.8-4.2,1.9-8.6,3.3-13c2.7-8.6,6.2-17.1,10.4-25.5
	c4.3-8.4,8.5-16.2,12.5-23.2c3.3,0.7,6.2,1.8,8.8,3.3c2.7,1.5,5.5,3.8,8.4,6.7c-1.2,3.6-3,7.5-5.5,11.6c-2.5,4-5,8.2-7.7,12.7
	c-2.7,4.5-5.2,9-7.4,13.7c-2.2,4.7-3.7,9.4-4.4,14.3c3.3-4.7,7.2-10.1,11.6-16.2c4.6-6.1,9.2-11.9,13.9-17.2
	c4.8-5.4,9.6-10,14.3-13.7c4.7-3.8,8.9-5.6,12.7-5.6c1.4,0,2.9,0.2,4.6,0.7c1.6,0.5,3.2,1.1,4.6,1.8c1.4,0.7,2.6,1.4,3.5,2.1
	c0.9,0.6,1.5,1.1,1.6,1.4c-0.6,2.3-2,5.6-4.2,9.7c-2.1,4-4.4,8.2-6.9,12.7c-2.5,4.5-4.8,8.8-6.9,13c-2.1,4.1-3.3,7.4-3.7,9.9
	c5.8-7.9,11.1-15,16.2-21.3c5-6.5,9.8-12,14.3-16.5c4.5-4.6,8.6-8.1,12.3-10.6c3.9-2.5,7.5-3.7,10.9-3.7c2.3,0,4.5,0.6,6.5,1.9
	c2.1,1.2,3.6,2.9,4.4,5.3c-1.1,3.5-2.8,7.7-5.3,12.7c-2.3,4.9-4.8,10.1-7.2,15.7c-2.5,5.4-4.7,10.7-6.7,16c-1.9,5.3-2.8,10-2.8,14.3
	c0,2.5,0.4,4.1,1.1,4.9c0.7,0.7,1.7,1.1,3,1.1c1.4,0,2.7-0.2,3.9-0.7c1.3-0.6,2.2-0.9,2.8-0.9c0.7,0.5,1.1,1.1,1.2,1.8
	c0.1,0.7,0.2,1.3,0.2,1.9c-2.3,1.9-4.8,3.4-7.2,4.6c-2.5,1.3-5.2,1.9-8.3,1.9c-2.8,0-5.2-0.5-7-1.4c-1.8-0.9-3.2-2.2-4.4-3.9
	c-1.2-1.6-2-3.5-2.5-5.6c-0.5-2.1-0.7-4.4-0.7-6.9c0-4,0.5-7.9,1.6-11.8c1.1-4,2.3-7.7,3.7-11.3c1.5-3.6,3.1-7,4.8-10
	C519.4,101.2,520.8,98.4,522,96z M563.4,163.4c-5.6-1.6-9.6-3.3-11.8-4.9c-2.1-1.6-3.2-3.7-3.2-6.2c0-1.9,0.5-4.5,1.6-7.9
	c1.1-3.4,2.6-7.4,4.6-12c2.1-4.7,4.6-9.9,7.4-15.5c2.9-5.6,6.2-11.7,9.9-18.1c-3.1-0.1-5.8-0.2-8.3-0.2c-2.3-0.1-4.3-0.2-5.8-0.2
	c0.7-1.8,2.7-3.3,6-4.6c3.3-1.3,7.6-2.4,13-3.3c4.6-7.6,9.4-14.9,14.6-21.8c5.3-6.9,10.6-13.3,15.8-19c5.3-5.9,10.6-11,15.8-15.3
	c5.3-4.5,10.3-8,15.1-10.6c0.1-0.8,0.2-1.5,0.2-2.1c0.1-0.6,0.2-1,0.2-1.2c1.6,0,3.8,0.4,6.5,1.2c2.8,0.8,5.5,1.8,8.1,3
	c2.7,1.2,5,2.4,7,3.7c2.1,1.2,3.3,2.2,3.5,3c-3.9,6.8-7.7,17-11.4,30.6c-3.8,13.5-6.9,29.7-9.3,48.6c-0.6,4.7-1.1,10-1.6,16
	c-0.4,6-0.5,12.7-0.5,20.1c0,2.6,0,5.2,0,7.9c0,2.7,0.1,5.5,0.4,8.4c-0.2,0.1-0.5,0.2-0.7,0.2c-0.2,0-0.7,0-1.4,0
	c-1.6,0-3.6-0.3-5.8-0.9c-2.1-0.5-4.2-1.1-6.3-1.9c-2-0.7-3.8-1.5-5.3-2.5c-1.4-0.9-2.3-1.8-2.6-2.5c-0.1-1.5-0.2-3.1-0.2-4.6
	c0-1.4,0-2.9,0-4.6c0-7.3,0.2-14.7,0.7-22.2c0.6-7.5,1.5-15.3,2.8-23.2c-1.6-0.1-3.8-0.2-6.5-0.4c-2.7-0.2-5.8-0.4-9.2-0.5
	c-3.3-0.1-6.9-0.2-10.7-0.4c-3.8-0.2-7.5-0.4-11.1-0.5c-2.8,5.3-5.5,10.6-7.9,15.8c-2.5,5.2-4.6,10.4-6.3,15.7
	c-2,5.6-3.6,11.3-4.9,16.9C564.6,153.2,563.8,158.4,563.4,163.4z M631.4,57.6c0.5-1.6,1-3.9,1.6-6.7c0.7-2.9,1.3-6,1.9-9.2
	c-2.9,1.1-6.2,3-9.9,5.8c-3.5,2.8-7.2,6.3-11.1,10.6c-3.8,4.1-7.6,8.8-11.6,14.1c-3.9,5.2-7.6,10.7-11.3,16.5
	c9.9-0.8,21.1-1.3,33.6-1.6c0.9-4.9,1.9-9.8,3-14.6C628.8,67.6,630.1,62.6,631.4,57.6z M710.3,146.1c-2.2-1.9-3.8-4.2-4.6-7
	c-0.7-2.8-1.1-5.2-1.1-7.2c0-2.5,0.3-4.6,0.9-6.3c-0.5,0-1.5,0.9-3.2,2.8c-1.6,1.9-3.5,4.1-5.5,6.7c-1.9,2.6-3.8,5.1-5.6,7.6
	c-1.9,2.5-3.3,4.3-4.2,5.5c-1.5,1.6-3,2.9-4.4,3.9c-1.3,0.9-2.3,1.5-3.2,1.6c-1.9-0.1-3.9-0.5-6-1.2c-2-0.6-3.9-1.5-5.8-2.6
	c-1.8-1.2-3.3-2.6-4.8-4.2c-1.3-1.6-2.2-3.5-2.6-5.6c0-3.3,0.1-6,0.2-8.1c0.2-2.1,0.6-4.4,1.2-6.9c1.1-4.5,2.6-9.5,4.6-15.1
	c2.1-5.6,4.5-11.1,7.2-16.5c2.7-5.5,5.7-10.6,9-15.3c3.4-4.8,7-8.6,10.7-11.3c1.1,0,2.3,0.1,3.7,0.4c1.4,0.1,2.8,0.4,4.2,0.9
	c1.5,0.5,2.9,1.1,4.2,1.8c1.4,0.6,2.6,1.4,3.5,2.5c-1.1,1.2-3.8,5.1-8.1,11.8c-4.2,6.7-9,16.3-14.3,28.9c-0.6,1.3-1.3,3.2-2.1,5.6
	c-0.8,2.5-1.6,5-2.5,7.7c-0.8,2.7-1.5,5.3-2.1,7.9c-0.5,2.6-0.7,4.6-0.7,6.2c0,0.9,0.1,1.6,0.4,2.1c0.4,0.5,0.6,0.8,0.9,1.1
	c1.8-0.7,4-2.6,6.7-5.8c2.7-3.2,6.5-8,11.3-14.6c1.2-1.6,2.5-3.5,4-5.6c1.6-2.1,3.3-4.3,4.9-6.7c1.6-2.5,3.2-5,4.6-7.6
	c1.5-2.6,2.8-5.2,3.7-7.7c0.5-1.4,1.1-3.1,1.8-4.9c0.8-2,1.8-4,2.8-6.2c1.2-2.1,2.5-4.2,3.9-6.3c1.5-2.2,3.3-4.3,5.3-6.2
	c1.5,0,3.2,0.2,4.9,0.5s3.4,0.8,4.9,1.4c1.6,0.5,3.1,1.1,4.2,1.8c1.2,0.6,2.1,1.2,2.6,1.9c-2.1,5.2-4.5,10.3-7,15.3
	c-2.6,5-5,10-7.2,15c-2.2,4.8-4.1,9.6-5.6,14.4c-1.5,4.8-2.3,9.5-2.3,14.1c0,2.5,0.2,4.6,0.5,6.5c0.5,1.8,0.9,3.3,1.4,4.6
	c0.5,1.2,0.9,2.2,1.2,3c0.5,0.8,0.7,1.5,0.7,2.1c0,0.1-0.1,0.3-0.4,0.5c-0.1,0.1-0.2,0.2-0.4,0.2c-0.8,0-1.9-0.2-3.2-0.5
	c-1.3-0.4-2.8-0.9-4.4-1.6c-1.5-0.6-3.1-1.3-4.8-2.1C713.2,147.9,711.7,147.1,710.3,146.1z M712.8,202.4c0-0.7,0.2-1.3,0.7-1.9
	c0.5-0.6,1-1.2,1.6-1.8c1.4,1.3,2.6,2.3,3.7,3c0.9,0.7,1.9,1.3,2.8,1.8c0.8,0.5,1.7,0.8,2.6,0.9c0.9,0.1,2.1,0.2,3.3,0.2
	c6.1,0,11.9-1.6,17.4-4.9c5.5-3.2,10.7-7.8,15.5-13.9c4.9-6.1,9.4-13.6,13.4-22.4c4-8.8,7.5-18.8,10.6-29.9c-1.4,1.4-3.2,3-5.3,4.8
	c-2,1.6-4.1,3.2-6.3,4.8c-2.2,1.5-4.5,2.9-6.7,4.2c-2.1,1.3-3.9,2.2-5.5,2.8c-2-0.4-3.9-1.2-5.6-2.5c-1.6-1.4-3.1-3.1-4.4-5.1
	c-1.3-2-2.3-4.2-3-6.7c-0.7-2.6-1.1-5.3-1.1-8.1c0-4.6,0.8-9.3,2.5-14.1c1.8-4.8,4-9.5,6.9-14.1c2.8-4.7,6.1-9.1,9.9-13.2
	c3.9-4.1,7.9-7.7,12.1-10.7c4.3-3.1,8.7-5.5,13-7.2c4.5-1.9,8.8-2.8,13-2.8c4.1,0,7.2,0.9,9.2,2.6c2.1,1.6,3.6,4.5,4.6,8.6
	c-1.3-0.7-2.9-1.1-4.9-1.1c-2.8,0-6.1,1.1-9.9,3.3c-3.6,2.2-7.4,5.2-11.3,8.8c-3.8,3.5-7.5,7.6-11.3,12.3c-3.8,4.6-7.1,9.3-10,14.1
	c-2.8,4.8-5.2,9.5-7,14.1c-1.8,4.6-2.6,8.7-2.6,12.3c0,0.8,0.1,1.3,0.2,1.6c0.1,0.1,0.3,0.2,0.5,0.2c1.1,0,2.5-0.6,4.2-1.8
	c1.9-1.2,3.9-2.6,6.2-4.4c2.3-1.9,4.8-4,7.2-6.3c2.5-2.5,4.8-4.9,7-7.4c5-5.6,9.6-11.9,13.7-18.8c4.2-7,7.6-13.8,10-20.4
	c3.2,0.2,6,0.8,8.4,1.6c2.5,0.8,4.2,1.7,5.1,2.6c-4,9.2-7.2,16.8-9.7,23.1c-2.3,6.2-4.4,11.7-6.2,16.5c-3.2,8.4-6.2,16.1-9,23.1
	c-2.7,7-5.5,13.5-8.4,19.4c-2.8,6-5.9,11.5-9.3,16.5c-3.3,5.2-7,10.1-11.3,14.8c-2,2.2-4.3,4.2-6.9,5.8c-2.5,1.8-5,3.2-7.7,4.4
	c-2.6,1.2-5.2,2.1-7.7,2.6c-2.5,0.6-4.8,0.9-6.9,0.9c-2.8,0-5.7-0.4-8.6-1.1c-2.9-0.6-5.6-1.5-8.1-2.6c-2.6-1.1-4.8-2.3-6.7-3.9
	C715,205.6,713.6,204.1,712.8,202.4z M890.6,77.1c-0.5,7.3-1.8,13.6-3.9,18.8c-2.1,5.2-5.2,9.7-9.2,13.7c-3.9,3.9-8.6,7.4-14.3,10.6
	c-5.6,3.2-12.2,6.2-19.7,9.2c0,0.7-0.1,1.5-0.2,2.3c0,0.7,0,1.5,0,2.3c0,1.5,0.1,3.1,0.4,4.8c0.2,1.6,0.6,3.2,1.2,4.6
	c0.6,1.4,1.4,2.6,2.5,3.5c1.1,0.8,2.4,1.2,4,1.2c3.2,0,6.3-0.7,9.3-2.1c3.1-1.4,5.9-3.1,8.6-5.1c2.8-2.1,5.4-4.3,7.7-6.7
	c2.5-2.5,4.6-4.7,6.5-6.7c1.2,1.1,2.2,2.1,3,3c-5.3,7-11.1,12.9-17.4,17.6c-6.2,4.6-12.1,7.5-17.8,8.8c-8.1-0.9-14.4-3.9-19-8.8
	c-4.5-5-6.7-11.1-6.7-18.1c0-4.8,0.6-9.7,1.9-14.6c1.4-5,3.3-9.9,5.6-14.4c2.5-4.7,5.3-9.1,8.4-13.2c3.3-4.1,6.7-7.7,10.4-10.7
	c3.8-3.1,7.6-5.5,11.4-7.2c4-1.8,7.9-2.6,11.8-2.6C880.8,67.8,885.9,71.2,890.6,77.1z M878.4,82.9c-3.2,0.5-6.5,1.8-9.9,3.9
	c-3.4,2.1-6.6,4.9-9.7,8.4c-2.9,3.5-5.6,7.6-8.1,12.3s-4.4,9.7-5.8,15.1c9.4-4.7,17.2-10.4,23.4-17.2C874.6,98.5,878,91,878.4,82.9z
	"/>
<path class="st1" d="M923.9,175.3c-2.7-3.2-5.2-6.6-7.4-10.4c-2.1-3.6-4-7.7-5.6-12.3c-1.5-4.5-2.7-9.4-3.5-15
	c-0.8-5.6-1.2-11.9-1.2-18.8c0-14.3,1.8-27.8,5.3-40.5c3.5-12.8,8.2-24.3,13.9-34.5c5.8-10.3,12.3-19.2,19.5-26.8
	c7.4-7.5,14.8-13.2,22.4-17.1c1.6,0.7,3.3,1.9,5.1,3.7c1.9,1.8,3.6,3.6,5.1,5.6c1.6,2,3,3.9,4,5.6c1.1,1.8,1.6,3,1.8,3.7
	c-9.3,1.6-17.8,5.9-25.7,12.7c-7.7,6.8-14.5,15.1-20.2,24.8c-5.6,9.7-10.1,20.3-13.4,31.7c-3.2,11.4-4.8,22.5-4.8,33.3
	c0,4.7,0.1,9.6,0.4,14.6c0.4,4.9,0.8,9.7,1.4,14.4c0.6,4.7,1.3,9,2.1,13c0.9,4,1.9,7.3,3,9.9L923.9,175.3z M998.6,8.8
	c2.7,3.2,5.1,6.6,7.2,10.4c2.2,3.6,4.1,7.7,5.6,12.3c1.7,4.5,2.9,9.5,3.7,15.1c0.8,5.5,1.2,11.7,1.2,18.7c0,14.3-1.8,27.9-5.3,40.7
	c-3.5,12.7-8.2,24.2-13.9,34.5c-5.8,10.3-12.3,19.2-19.7,26.6c-7.3,7.5-14.7,13.2-22.2,17.1c-1.6-0.7-3.4-1.9-5.3-3.7
	c-1.8-1.8-3.4-3.6-4.9-5.6c-1.6-2-3-3.9-4-5.6c-1.1-1.8-1.6-3-1.8-3.7c9.3-1.6,17.8-5.9,25.5-12.7c7.9-6.8,14.6-15.1,20.2-24.8
	c5.7-9.7,10.2-20.3,13.4-31.7c3.3-11.4,4.9-22.5,4.9-33.3c0-4.7-0.2-9.5-0.5-14.4c-0.2-5-0.7-9.9-1.2-14.6c-0.6-4.7-1.4-9-2.3-12.8
	c-0.8-4-1.8-7.3-2.8-10L998.6,8.8z"/>
</svg>
